# Blender 4.1.1
# www.blender.org
mtllib landsat_collision_2.mtl
o Cube.001
v 1.664901 -0.662448 -0.759719
v 1.671979 -0.662448 -0.730619
v 1.664901 0.473756 -0.759719
v 1.671979 0.473756 -0.730619
v 6.154314 -0.662448 -1.851812
v 6.161393 -0.662448 -1.822713
v 6.154314 0.473756 -1.851812
v 6.161393 0.473756 -1.822713
vn -0.9717 -0.0000 0.2364
vn -0.0000 1.0000 -0.0000
vn 0.9717 -0.0000 -0.2364
vn -0.0000 -1.0000 -0.0000
vn -0.2364 -0.0000 -0.9717
vn 0.2364 -0.0000 0.9717
vt 0.375000 0.000000
vt 0.625000 0.000000
vt 0.625000 0.250000
vt 0.375000 0.250000
vt 0.625000 0.500000
vt 0.375000 0.500000
vt 0.625000 0.750000
vt 0.375000 0.750000
vt 0.625000 1.000000
vt 0.375000 1.000000
vt 0.125000 0.500000
vt 0.125000 0.750000
vt 0.875000 0.500000
vt 0.875000 0.750000
s 0
f 1/1/1 2/2/1 4/3/1 3/4/1
f 3/4/2 4/3/2 8/5/2 7/6/2
f 7/6/3 8/5/3 6/7/3 5/8/3
f 5/8/4 6/7/4 2/9/4 1/10/4
f 3/11/5 7/6/5 5/8/5 1/12/5
f 8/5/6 4/13/6 2/14/6 6/7/6
