# Blender 4.1.1
# www.blender.org
mtllib rafti_finger_collision_8.mtl
o Cylinder.008
v 0.018167 0.010965 0.000008
v 0.018135 -0.011187 0.000008
v 0.018167 0.010965 0.035792
v 0.018135 -0.011187 0.028242
v 0.000000 0.011076 0.035792
v 0.000000 0.011076 0.000008
v 0.000000 -0.011076 0.028242
v 0.000000 -0.011076 0.000008
vn 1.0000 -0.0014 -0.0000
vn 0.0061 1.0000 -0.0000
vn -0.0061 -1.0000 -0.0000
vn -0.0000 -0.0000 -1.0000
vn -0.0020 -0.3226 0.9465
vn -1.0000 -0.0000 -0.0000
vt 0.000000 0.000000
vt 0.501385 0.124999
vt 0.498616 0.124999
vt 0.498615 0.121470
vt 0.501384 0.120526
s 0
usemtl Material.001
f 4/1/1 2/1/1 1/1/1 3/1/1
f 6/1/2 5/1/2 3/1/2 1/1/2
f 7/1/3 8/1/3 2/1/3 4/1/3
f 2/1/4 8/1/4 6/1/4 1/1/4
f 3/1/5 5/1/5 7/1/5 4/1/5
f 6/2/6 8/3/6 7/4/6 5/5/6
