# Blender 4.1.1
# www.blender.org
mtllib rafti_finger_collision_4.mtl
o Cylinder.009
v -0.002667 -0.009558 0.073140
v -0.002443 -0.009254 0.073140
v -0.002189 -0.008974 0.073140
v -0.001910 -0.008721 0.073140
v -0.001607 -0.008496 0.073140
v -0.001283 -0.008301 0.073140
v -0.000942 -0.008140 0.073140
v -0.000587 -0.008012 0.073140
v -0.000221 -0.007920 0.073140
v 0.000153 -0.007865 0.073140
v 0.000530 -0.007846 0.073140
v 0.000907 -0.007864 0.073140
v 0.001280 -0.007919 0.073140
v 0.001646 -0.008011 0.073140
v 0.002002 -0.008138 0.073140
v 0.002343 -0.008299 0.073140
v 0.002667 -0.008492 0.073140
v 0.002971 -0.008717 0.073140
v 0.003908 -0.009687 0.084260
v 0.003250 -0.008970 0.073140
v 0.003908 -0.009687 0.073140
v 0.003250 -0.008970 0.084260
v 0.002971 -0.008717 0.084260
v 0.002667 -0.008492 0.084260
v 0.002343 -0.008299 0.084260
v 0.002002 -0.008138 0.084260
v 0.001646 -0.008011 0.084260
v 0.001280 -0.007919 0.084260
v 0.000907 -0.007864 0.084260
v 0.000530 -0.007846 0.084260
v 0.000153 -0.007865 0.084260
v -0.000221 -0.007920 0.084260
v -0.000587 -0.008012 0.084260
v -0.000942 -0.008140 0.084260
v -0.001283 -0.008301 0.084260
v -0.001607 -0.008496 0.084260
v -0.001910 -0.008721 0.084260
v -0.002189 -0.008974 0.084260
v -0.002443 -0.009254 0.084260
v -0.002667 -0.009558 0.084260
v -0.018135 -0.051238 0.073140
v 0.018168 -0.051016 0.073140
v -0.018135 -0.051238 0.084260
v 0.018168 -0.051016 0.084260
v -0.018167 -0.029088 0.073141
v -0.018164 -0.029088 0.084260
v 0.018135 -0.028864 0.073140
v 0.018135 -0.028864 0.084260
v -0.018135 -0.051238 0.073139
v 0.018168 -0.051016 0.073139
v 0.018135 -0.028864 0.073139
v -0.018167 -0.029088 0.073139
vn 0.6710 0.7414 -0.0000
vn -0.3377 0.9413 -0.0000
vn 0.8031 0.5958 -0.0000
vn 0.5134 0.8581 -0.0000
vn -0.6721 0.7405 -0.0000
vn 0.7368 0.6761 -0.0000
vn -0.2438 0.9698 -0.0000
vn 0.4269 0.9043 -0.0000
vn -0.0499 0.9988 -0.0000
vn 0.2423 0.9702 -0.0000
vn -0.1474 0.9891 -0.0000
vn 0.0483 0.9988 -0.0000
vn -0.5964 0.8027 -0.0000
vn 0.5953 0.8035 -0.0000
vn -0.4281 0.9037 -0.0000
vn -0.7414 0.6710 -0.0000
vn 0.3360 0.9419 -0.0000
vn 0.1459 0.9893 -0.0000
vn -0.5147 0.8574 -0.0000
vn -0.0000 -0.0000 1.0000
vn -0.8036 0.5951 -0.0000
vn -0.0000 -0.0000 -1.0000
vn -1.0000 -0.0014 0.0001
vn 0.0061 -1.0000 -0.0000
vn 0.0062 -1.0000 -0.0000
vn -0.0062 1.0000 -0.0000
vn -1.0000 -0.0014 -0.0000
vn 1.0000 0.0015 -0.0000
vn -0.7833 0.6216 0.0001
vt 0.000000 0.000000
vt 0.375000 0.844006
vt 0.375000 0.843950
vt 0.375000 0.905994
vt 0.375000 0.906049
s 0
usemtl Material.001
f 23/1/1 22/1/1 20/1/1 18/1/1
f 34/1/2 33/1/2 8/1/2 7/1/2
f 19/1/3 48/1/3 47/1/3 21/1/3
f 25/1/4 24/1/4 17/1/4 16/1/4
f 38/1/5 37/1/5 4/1/5 3/1/5
f 22/1/6 19/1/6 21/1/6 20/1/6
f 33/1/7 32/1/7 9/1/7 8/1/7
f 26/1/8 25/1/8 16/1/8 15/1/8
f 31/1/9 30/1/9 11/1/9 10/1/9
f 28/1/10 27/1/10 14/1/10 13/1/10
f 32/1/11 31/1/11 10/1/11 9/1/11
f 30/1/12 29/1/12 12/1/12 11/1/12
f 37/1/13 36/1/13 5/1/13 4/1/13
f 24/1/14 23/1/14 18/1/14 17/1/14
f 35/1/15 34/1/15 7/1/15 6/1/15
f 39/1/16 38/1/16 3/1/16 2/1/16
f 27/1/17 26/1/17 15/1/17 14/1/17
f 29/1/18 28/1/18 13/1/18 12/1/18
f 36/1/19 35/1/19 6/1/19 5/1/19
f 40/1/20 19/1/20 22/1/20 23/1/20 24/1/20 25/1/20 26/1/20 27/1/20 28/1/20 29/1/20 30/1/20 31/1/20 32/1/20 33/1/20 34/1/20 35/1/20 36/1/20 37/1/20 38/1/20 39/1/20
f 46/1/20 48/1/20 19/1/20 40/1/20
f 40/1/21 39/1/21 2/1/21 1/1/21
f 20/1/22 21/1/22 1/1/22 2/1/22 3/1/22 4/1/22 5/1/22 6/1/22 7/1/22 8/1/22 9/1/22 10/1/22 11/1/22 12/1/22 13/1/22 14/1/22 15/1/22 16/1/22 17/1/22 18/1/22
f 44/1/20 48/1/20 46/1/20 43/1/20
f 46/1/23 45/1/23 41/1/23 43/1/23
f 41/1/24 42/1/24 44/1/24 43/1/24
f 50/1/25 42/1/25 41/1/25 49/1/25
f 52/1/26 45/1/26 47/1/26 51/1/26
f 49/1/27 41/1/27 45/1/27 52/1/27
f 51/1/28 47/1/28 42/1/28 50/1/28
f 42/1/28 47/1/28 48/1/28 44/1/28
f 45/1/29 46/1/29 40/1/29 1/1/29
f 47/1/22 45/1/22 1/1/22 21/1/22
f 51/2/22 50/3/22 49/4/22 52/5/22
