# Blender 4.1.1
# www.blender.org
mtllib rafti_finger.mtl
o Cylinder.009
v -0.002667 -0.009558 0.073140
v -0.002443 -0.009254 0.073140
v -0.002189 -0.008974 0.073140
v -0.001910 -0.008721 0.073140
v -0.001607 -0.008496 0.073140
v -0.001283 -0.008301 0.073140
v -0.000942 -0.008140 0.073140
v -0.000587 -0.008012 0.073140
v -0.000221 -0.007920 0.073140
v 0.000153 -0.007865 0.073140
v 0.000530 -0.007846 0.073140
v 0.000907 -0.007864 0.073140
v 0.001280 -0.007919 0.073140
v 0.001646 -0.008011 0.073140
v 0.002002 -0.008138 0.073140
v 0.002343 -0.008299 0.073140
v 0.002667 -0.008492 0.073140
v 0.002971 -0.008717 0.073140
v 0.003908 -0.009687 0.084260
v 0.003250 -0.008970 0.073140
v 0.003908 -0.009687 0.073140
v 0.003250 -0.008970 0.084260
v 0.002971 -0.008717 0.084260
v 0.002667 -0.008492 0.084260
v 0.002343 -0.008299 0.084260
v 0.002002 -0.008138 0.084260
v 0.001646 -0.008011 0.084260
v 0.001280 -0.007919 0.084260
v 0.000907 -0.007864 0.084260
v 0.000530 -0.007846 0.084260
v 0.000153 -0.007865 0.084260
v -0.000221 -0.007920 0.084260
v -0.000587 -0.008012 0.084260
v -0.000942 -0.008140 0.084260
v -0.001283 -0.008301 0.084260
v -0.001607 -0.008496 0.084260
v -0.001910 -0.008721 0.084260
v -0.002189 -0.008974 0.084260
v -0.002443 -0.009254 0.084260
v -0.002667 -0.009558 0.084260
v 0.012832 -0.003055 0.036450
v 0.011181 -0.005036 0.036450
v 0.012807 -0.003399 0.036450
v 0.012733 -0.003732 0.036450
v 0.012611 -0.004045 0.036450
v 0.012446 -0.004328 0.036450
v 0.011468 -0.005005 0.036450
v 0.011746 -0.004916 0.036450
v 0.012007 -0.004770 0.036450
v -0.011171 -0.005052 0.036450
v -0.012824 -0.003074 0.036450
v -0.011458 -0.005022 0.036450
v -0.011736 -0.004933 0.036450
v -0.011997 -0.004787 0.036450
v -0.012233 -0.004590 0.036450
v -0.012799 -0.003418 0.036450
v -0.012724 -0.003751 0.036450
v -0.012602 -0.004063 0.036450
v 0.012243 -0.004572 0.036450
v -0.012437 -0.004346 0.036450
v 0.012827 0.003926 0.036450
v -0.012829 0.003907 0.036450
v -0.018135 -0.051238 0.073140
v 0.018168 -0.051016 0.073140
v -0.018135 -0.051238 0.084260
v 0.018168 -0.051016 0.084260
v -0.018167 0.010965 0.000008
v 0.018136 0.011187 0.000009
v -0.018135 -0.011187 0.000008
v 0.018168 -0.010965 0.000008
v 0.012827 0.003926 0.000009
v 0.012832 -0.003055 0.000009
v 0.011181 -0.005036 0.000008
v 0.012733 -0.003732 0.000008
v 0.011746 -0.004916 0.000008
v 0.012446 -0.004328 0.000008
v 0.012243 -0.004572 0.000008
v 0.012007 -0.004770 0.000008
v 0.012611 -0.004045 0.000008
v 0.012807 -0.003399 0.000008
v 0.011468 -0.005005 0.000008
v -0.012829 0.003907 0.000008
v -0.012824 -0.003074 0.000008
v -0.012602 -0.004063 0.000008
v -0.012724 -0.003751 0.000008
v -0.012799 -0.003418 0.000008
v -0.012233 -0.004590 0.000008
v -0.011736 -0.004933 0.000008
v -0.011997 -0.004787 0.000008
v -0.011458 -0.005022 0.000008
v -0.011171 -0.005052 0.000008
v -0.012437 -0.004346 0.000008
v 0.018136 -0.028864 0.057634
v 0.018136 0.002548 0.044011
v 0.018136 0.011187 0.035792
v -0.018167 -0.029087 0.057634
v -0.018167 0.002326 0.044011
v -0.018167 0.010965 0.035792
v 0.018168 -0.051016 0.057634
v 0.018168 -0.033077 0.040211
v 0.018168 -0.010965 0.028242
v -0.018135 -0.051238 0.057634
v -0.018135 -0.033299 0.040211
v -0.018135 -0.011187 0.028242
v -0.018167 -0.029088 0.073141
v -0.018164 -0.029088 0.084260
v 0.018135 -0.028864 0.073140
v 0.018135 -0.028864 0.084260
vn 0.6710 0.7414 -0.0000
vn -0.3376 0.9413 -0.0000
vn 0.8031 0.5958 -0.0000
vn 0.5135 0.8581 -0.0000
vn -0.6721 0.7405 -0.0000
vn 0.7368 0.6761 -0.0000
vn -0.2437 0.9699 -0.0000
vn 0.4269 0.9043 -0.0000
vn -0.0498 0.9988 -0.0000
vn 0.2423 0.9702 -0.0000
vn -0.1474 0.9891 -0.0000
vn 0.0483 0.9988 -0.0000
vn -0.5963 0.8028 -0.0000
vn 0.5951 0.8036 -0.0000
vn -0.4282 0.9037 -0.0000
vn -0.7414 0.6710 -0.0000
vn 0.3362 0.9418 -0.0000
vn 0.1460 0.9893 -0.0000
vn -0.5147 0.8574 -0.0000
vn -0.0000 -0.0000 1.0000
vn -0.8036 0.5951 -0.0000
vn -0.0000 -0.0000 -1.0000
vn -1.0000 -0.0014 0.0001
vn 0.0061 -1.0000 -0.0000
vn 1.0000 0.0014 -0.0000
vn -1.0000 -0.0014 -0.0000
vn -0.0061 1.0000 -0.0000
vn 0.6422 0.7666 -0.0000
vn -0.1050 0.9945 -0.0000
vn 1.0000 0.0007 -0.0000
vn 0.4871 0.8733 -0.0000
vn -0.8638 0.5039 -0.0000
vn 0.7673 0.6413 -0.0000
vn 0.3050 0.9524 -0.0000
vn -0.9322 0.3620 -0.0000
vn 0.8630 0.5052 -0.0000
vn 0.1035 0.9946 -0.0000
vn -0.9761 0.2175 -0.0000
vn -0.7682 0.6402 -0.0000
vn 0.9317 0.3633 -0.0000
vn -0.9974 0.0721 -0.0000
vn -0.0007 1.0000 -0.0000
vn -0.6433 0.7656 -0.0000
vn 0.9757 0.2189 -0.0000
vn -0.4884 0.8726 -0.0000
vn 0.9973 0.0735 -0.0000
vn -0.3064 0.9519 -0.0000
vn 0.0007 -1.0000 -0.0000
vn -1.0000 -0.0007 -0.0000
vn 0.0043 -0.6967 -0.7174
vn 0.0029 -0.4760 -0.8794
vn -0.0061 1.0000 0.0001
vn -0.0024 0.3979 0.9174
vn -0.0042 0.6893 0.7245
vn -1.0000 -0.0010 -0.0016
vn -1.0000 -0.0009 -0.0013
vn 1.0000 0.0015 -0.0000
vn 1.0000 0.0010 0.0016
vn 1.0000 0.0009 0.0013
vn -0.7833 0.6216 0.0001
vt 0.000000 0.000000
vt 1.000000 0.975890
vt 1.000000 0.966253
vt 1.000000 0.044409
vt 1.000000 0.055772
vt 1.000000 0.067494
vt 1.000000 0.932506
vt 1.000000 0.944228
vt 1.000000 0.955591
vt 0.923722 1.000000
vt 0.893232 1.000000
vt 0.859502 1.000000
vt 0.823551 1.000000
vt 0.786469 1.000000
vt 0.786469 0.000000
vt 0.823551 0.000000
vt 0.859502 0.000000
vt 0.893232 0.000000
vt 0.923722 0.000000
vt 1.000000 0.024110
vt 1.000000 0.033747
s 0
usemtl Material
f 23/1/1 22/1/1 20/1/1 18/1/1
f 34/1/2 33/1/2 8/1/2 7/1/2
f 19/1/3 108/1/3 107/1/3 21/1/3
f 25/1/4 24/1/4 17/1/4 16/1/4
f 38/1/5 37/1/5 4/1/5 3/1/5
f 22/1/6 19/1/6 21/1/6 20/1/6
f 33/1/7 32/1/7 9/1/7 8/1/7
f 26/1/8 25/1/8 16/1/8 15/1/8
f 31/1/9 30/1/9 11/1/9 10/1/9
f 28/1/10 27/1/10 14/1/10 13/1/10
f 32/1/11 31/1/11 10/1/11 9/1/11
f 30/1/12 29/1/12 12/1/12 11/1/12
f 37/1/13 36/1/13 5/1/13 4/1/13
f 24/1/14 23/1/14 18/1/14 17/1/14
f 35/1/15 34/1/15 7/1/15 6/1/15
f 39/1/16 38/1/16 3/1/16 2/1/16
f 27/1/17 26/1/17 15/1/17 14/1/17
f 29/1/18 28/1/18 13/1/18 12/1/18
f 36/1/19 35/1/19 6/1/19 5/1/19
f 19/1/20 22/1/20 23/1/20 24/1/20 25/1/20 26/1/20 27/1/20 28/1/20 29/1/20 30/1/20 31/1/20 32/1/20 33/1/20 34/1/20 35/1/20 36/1/20 37/1/20 38/1/20 39/1/20 40/1/20
f 106/1/20 108/1/20 19/1/20 40/1/20
f 40/1/21 39/1/21 2/1/21 1/1/21
f 21/1/22 1/1/22 2/1/22 3/1/22 4/1/22 5/1/22 6/1/22 7/1/22 8/1/22 9/1/22 10/1/22 11/1/22 12/1/22 13/1/22 14/1/22 15/1/22 16/1/22 17/1/22 18/1/22 20/1/22
f 66/1/20 108/1/20 106/1/20 65/1/20
f 106/1/23 105/1/23 63/1/23 65/1/23
f 63/1/24 64/1/24 66/1/24 65/1/24
f 95/1/25 101/1/25 70/1/25 68/1/25
f 87/1/22 69/1/22 67/1/22 82/1/22 83/1/22 86/1/22 85/1/22 84/1/22 92/1/22
f 82/1/22 67/1/22 68/1/22 70/1/22 69/1/22 87/1/22 89/1/22 88/1/22 90/1/22 91/1/22 73/1/22 81/1/22 75/1/22 78/1/22 77/1/22 76/1/22 79/1/22 74/1/22 80/1/22 72/1/22 71/1/22
f 104/1/26 98/1/26 67/1/26 69/1/26
f 98/1/27 95/1/27 68/1/27 67/1/27
f 101/1/24 104/1/24 69/1/24 70/1/24
f 87/2/28 55/2/28 54/3/28 89/3/28
f 48/4/22 47/5/22 42/6/22 50/7/22 52/8/22 53/9/22 54/3/22 55/2/22 60/10/22 58/11/22 57/12/22 56/13/22 51/14/22 41/15/22 43/16/22 44/17/22 45/18/22 46/19/22 59/20/22 49/21/22
f 42/6/29 47/5/29 81/5/29 73/6/29
f 82/14/30 62/14/30 51/14/30 83/14/30
f 89/3/31 54/3/31 53/9/31 88/9/31
f 46/19/32 45/18/32 79/18/32 76/19/32
f 92/10/33 60/10/33 55/2/33 87/2/33
f 88/9/34 53/9/34 52/8/34 90/8/34
f 45/18/35 44/17/35 74/17/35 79/18/35
f 84/11/36 58/11/36 60/10/36 92/10/36
f 90/8/37 52/8/37 50/7/37 91/7/37
f 44/17/38 43/16/38 80/16/38 74/17/38
f 59/20/39 46/19/39 76/19/39 77/20/39
f 85/12/40 57/12/40 58/11/40 84/11/40
f 43/16/41 41/15/41 72/15/41 80/16/41
f 50/7/42 42/6/42 73/6/42 91/7/42
f 49/21/43 59/20/43 77/20/43 78/21/43
f 86/13/44 56/13/44 57/12/44 85/12/44
f 48/4/45 49/21/45 78/21/45 75/4/45
f 83/14/46 51/14/46 56/13/46 86/13/46
f 47/5/47 48/4/47 75/4/47 81/5/47
f 71/15/48 61/15/48 62/14/48 82/14/48
f 51/14/22 62/14/22 61/15/22 41/15/22
f 41/15/49 61/15/49 71/15/49 72/15/49
f 64/1/24 63/1/24 102/1/24 99/1/24
f 99/1/50 102/1/50 103/1/50 100/1/50
f 100/1/51 103/1/51 104/1/51 101/1/51
f 105/1/52 107/1/52 93/1/52 96/1/52
f 96/1/53 93/1/53 94/1/53 97/1/53
f 97/1/54 94/1/54 95/1/54 98/1/54
f 63/1/26 105/1/26 96/1/26 102/1/26
f 102/1/55 96/1/55 97/1/55 103/1/55
f 103/1/56 97/1/56 98/1/56 104/1/56
f 107/1/57 64/1/57 99/1/57 93/1/57
f 93/1/58 99/1/58 100/1/58 94/1/58
f 94/1/59 100/1/59 101/1/59 95/1/59
f 64/1/57 107/1/57 108/1/57 66/1/57
f 105/1/60 106/1/60 40/1/60 1/1/60
f 107/1/22 105/1/22 1/1/22 21/1/22
