# Blender 4.1.1
# www.blender.org
mtllib rafti_finger_collision_2.mtl
o Cylinder.002
v -0.018135 -0.051238 0.057635
v -0.018167 -0.029087 0.057635
v -0.018135 -0.051238 0.073139
v -0.018167 -0.029088 0.073141
v 0.000000 -0.028975 0.057635
v 0.000000 -0.028976 0.073140
v 0.000000 -0.051127 0.073139
v 0.000000 -0.051127 0.057635
vn -0.0062 1.0000 -0.0000
vn -1.0000 -0.0014 -0.0000
vn 0.0061 -1.0000 -0.0000
vn -0.0000 -0.0000 1.0000
vn -0.0000 -0.0000 -1.0000
vn 1.0000 -0.0000 -0.0000
vt 0.000000 0.000000
vt 0.375000 0.910229
vt 0.375000 0.870898
vt 0.375000 0.910299
vt 0.493609 0.115858
vt 0.493609 0.117796
vt 0.496378 0.117796
vt 0.496378 0.115857
s 0
usemtl Material.001
f 2/1/1 4/1/1 6/1/1 5/1/1
f 3/1/2 4/1/2 2/1/2 1/2/2
f 3/1/3 1/2/3 8/3/3 7/1/3
f 4/1/4 3/1/4 7/1/4 6/1/4
f 8/3/5 1/2/5 2/4/5 5/3/5
f 7/5/6 8/6/6 5/7/6 6/8/6
