# Blender 4.1.1
# www.blender.org
mtllib rafti_finger_collision_1.mtl
o Cylinder.009
v -0.002667 -0.009558 0.073140
v -0.002443 -0.009254 0.073140
v -0.002189 -0.008974 0.073140
v -0.001910 -0.008721 0.073140
v -0.001607 -0.008496 0.073140
v -0.001283 -0.008301 0.073140
v -0.000942 -0.008140 0.073140
v -0.000587 -0.008012 0.073140
v -0.000221 -0.007920 0.073140
v -0.000221 -0.007920 0.084260
v -0.000587 -0.008012 0.084260
v -0.000942 -0.008140 0.084260
v -0.001283 -0.008301 0.084260
v -0.001607 -0.008496 0.084260
v -0.001910 -0.008721 0.084260
v -0.002189 -0.008974 0.084260
v -0.002443 -0.009254 0.084260
v -0.002667 -0.009558 0.084260
v -0.018135 -0.051238 0.073140
v -0.018135 -0.051238 0.084260
v -0.018167 -0.029088 0.073141
v -0.018164 -0.029088 0.084260
v -0.018135 -0.051238 0.073139
v -0.018167 -0.029088 0.073139
v 0.000000 -0.007887 0.084260
v 0.000000 -0.007887 0.073140
v 0.000000 -0.009610 0.084260
v 0.000000 -0.028976 0.084260
v 0.000000 -0.009610 0.073140
v 0.000000 -0.051127 0.084260
v 0.000000 -0.051127 0.073140
v 0.000000 -0.051127 0.073139
v 0.000000 -0.028976 0.073139
v 0.000000 -0.028976 0.073141
vn -0.3377 0.9413 -0.0000
vn -0.6721 0.7405 -0.0000
vn -0.2438 0.9698 -0.0000
vn -0.1455 0.9894 -0.0000
vn -0.5964 0.8027 -0.0000
vn -0.4281 0.9037 -0.0000
vn -0.7414 0.6710 -0.0000
vn -0.5147 0.8574 -0.0000
vn -0.0000 -0.0000 1.0000
vn -0.8036 0.5951 -0.0000
vn -0.0000 -0.0000 -1.0000
vn -1.0000 -0.0014 0.0001
vn 0.0061 -1.0000 -0.0000
vn -0.0062 1.0000 -0.0000
vn -1.0000 -0.0014 -0.0000
vn -0.7833 0.6216 0.0001
vn 1.0000 -0.0000 -0.0000
vt 0.000000 0.000000
vt 0.375000 0.905994
vt 0.375000 0.906049
vt 0.375000 0.875000
vt 0.499014 0.115857
vt 0.499014 0.114467
vt 0.498799 0.114468
vt 0.496378 0.114468
vt 0.493609 0.114468
vt 0.493609 0.115857
vt 0.493609 0.115858
vt 0.496378 0.115858
vt 0.496378 0.115857
vt 0.498799 0.115857
s 0
usemtl Material.001
f 12/1/1 11/1/1 8/1/1 7/1/1
f 16/1/2 15/1/2 4/1/2 3/1/2
f 11/1/3 10/1/3 9/1/3 8/1/3
f 26/1/4 9/1/4 10/1/4 25/1/4
f 15/1/5 14/1/5 5/1/5 4/1/5
f 13/1/6 12/1/6 7/1/6 6/1/6
f 17/1/7 16/1/7 3/1/7 2/1/7
f 14/1/8 13/1/8 6/1/8 5/1/8
f 25/1/9 10/1/9 11/1/9 12/1/9 13/1/9 14/1/9 15/1/9 16/1/9 17/1/9 18/1/9 27/1/9
f 27/1/9 18/1/9 22/1/9 28/1/9
f 18/1/10 17/1/10 2/1/10 1/1/10
f 2/1/11 3/1/11 4/1/11 5/1/11 6/1/11 7/1/11 8/1/11 9/1/11 26/1/11 29/1/11 1/1/11
f 22/1/9 20/1/9 30/1/9 28/1/9
f 22/1/12 21/1/12 19/1/12 20/1/12
f 30/1/13 20/1/13 19/1/13 31/1/13
f 19/1/13 23/1/13 32/1/13 31/1/13
f 24/1/14 21/1/14 34/1/14 33/1/14
f 23/1/15 19/1/15 21/1/15 24/1/15
f 21/1/16 22/1/16 18/1/16 1/1/16
f 34/1/11 21/1/11 1/1/11 29/1/11
f 23/2/11 24/3/11 33/4/11 32/4/11
f 26/5/17 25/6/17 27/7/17 28/8/17 30/9/17 31/10/17 32/11/17 33/12/17 34/13/17 29/14/17
