# Blender 4.1.1
# www.blender.org
mtllib ring_collision_18.mtl
o Cylinder.015
v 0.179328 0.043110 -0.103262
v 0.179328 0.022579 -0.109490
v 0.133023 0.022579 -0.109490
v 0.179328 0.030856 -0.073677
v 0.179328 0.016332 -0.078083
v 0.133023 0.043110 -0.103262
v 0.133023 0.016332 -0.078083
v 0.133023 0.030856 -0.073677
vn -1.0000 -0.0000 -0.0000
vn 1.0000 -0.0000 -0.0000
vn -0.0000 0.9808 0.1951
vn -0.0000 -0.2903 0.9569
vn -0.0000 -0.9239 -0.3827
vn -0.0000 0.2903 -0.9569
vt 0.000000 0.000000
s 0
f 5/1/1 4/1/1 1/1/1 2/1/1
f 7/1/2 3/1/2 6/1/2 8/1/2
f 5/1/3 2/1/3 3/1/3 7/1/3
f 2/1/4 1/1/4 6/1/4 3/1/4
f 1/1/5 4/1/5 8/1/5 6/1/5
f 4/1/6 5/1/6 7/1/6 8/1/6
