# Blender 4.1.1
# www.blender.org
mtllib ring_collision_2.mtl
o Cylinder.031
v 0.179328 -0.040654 0.098963
v 0.179328 -0.020123 0.105191
v 0.133023 -0.020123 0.105191
v 0.179328 -0.028400 0.069379
v 0.179328 -0.013876 0.073785
v 0.133023 -0.040654 0.098963
v 0.133023 -0.013876 0.073785
v 0.133023 -0.028400 0.069379
vn -1.0000 -0.0000 -0.0000
vn 1.0000 -0.0000 -0.0000
vn -0.0000 -0.9808 -0.1951
vn -0.0000 0.2903 -0.9569
vn -0.0000 0.9239 0.3827
vn -0.0000 -0.2903 0.9569
vt 0.000000 0.000000
s 0
f 5/1/1 4/1/1 1/1/1 2/1/1
f 7/1/2 3/1/2 6/1/2 8/1/2
f 5/1/3 2/1/3 3/1/3 7/1/3
f 2/1/4 1/1/4 6/1/4 3/1/4
f 1/1/5 4/1/5 8/1/5 6/1/5
f 4/1/6 5/1/6 7/1/6 8/1/6
