# Blender 4.1.1
# www.blender.org
mtllib ring_collision_4.mtl
o Cylinder.029
v 0.179328 -0.076160 0.075239
v 0.179328 -0.059575 0.088849
v 0.133023 -0.059575 0.088850
v 0.179328 -0.053517 0.052596
v 0.179328 -0.041785 0.062224
v 0.133023 -0.076160 0.075239
v 0.133023 -0.041785 0.062224
v 0.133023 -0.053517 0.052596
vn -1.0000 -0.0000 -0.0000
vn 1.0000 -0.0000 -0.0000
vn -0.0000 -0.8315 -0.5556
vn -0.0000 0.6344 -0.7730
vn -0.0000 0.7071 0.7071
vn -0.0000 -0.6344 0.7730
vt 0.000000 0.000000
s 0
f 5/1/1 4/1/1 1/1/1 2/1/1
f 7/1/2 3/1/2 6/1/2 8/1/2
f 5/1/3 2/1/3 3/1/3 7/1/3
f 2/1/4 1/1/4 6/1/4 3/1/4
f 1/1/5 4/1/5 8/1/5 6/1/5
f 4/1/6 5/1/6 7/1/6 8/1/6
