# Blender 4.1.1
# www.blender.org
mtllib ring_collision_6.mtl
o Cylinder.027
v 0.179328 -0.099884 0.039733
v 0.179328 -0.089771 0.058654
v 0.133023 -0.089771 0.058654
v 0.179328 -0.070300 0.027479
v 0.179328 -0.063145 0.040864
v 0.133023 -0.099884 0.039733
v 0.133023 -0.063145 0.040864
v 0.133023 -0.070300 0.027479
vn -1.0000 -0.0000 -0.0000
vn 1.0000 -0.0000 -0.0000
vn -0.0000 -0.5556 -0.8315
vn -0.0000 0.8819 -0.4714
vn -0.0000 0.3827 0.9239
vn -0.0000 -0.8819 0.4714
vt 0.000000 0.000000
s 0
f 5/1/1 4/1/1 1/1/1 2/1/1
f 7/1/2 3/1/2 6/1/2 8/1/2
f 5/1/3 2/1/3 3/1/3 7/1/3
f 2/1/4 1/1/4 6/1/4 3/1/4
f 1/1/5 4/1/5 8/1/5 6/1/5
f 4/1/6 5/1/6 7/1/6 8/1/6
