# Blender 4.1.1
# www.blender.org
mtllib stud.mtl
o stud.012
v 0.069850 -1.320800 0.019050
v 0.069849 1.320800 0.019050
v -0.069849 -1.320800 0.019050
v -0.069850 1.320800 0.019050
v 0.069850 -1.320800 -0.019050
v 0.069849 1.320800 -0.019050
v -0.069849 -1.320800 -0.019050
v -0.069850 1.320800 -0.019050
vn -0.0000 -0.0000 1.0000
vn -1.0000 -0.0000 -0.0000
vn -0.0000 -0.0000 -1.0000
vn 1.0000 -0.0000 -0.0000
vn -0.0000 -1.0000 -0.0000
vn -0.0000 1.0000 -0.0000
vt 1.213791 -16.308403
vt 1.213784 17.251369
vt -0.254457 17.251369
vt -0.254450 -16.308403
vt 0.921733 25.685797
vt 0.921739 -24.774954
vt -0.024398 -24.774954
vt -0.024404 25.685797
vt -8.878998 0.500000
vt -2.626330 0.500000
vt -2.626330 4.668440
vt -8.878998 4.668440
vt 3.626328 0.500000
vt 9.878998 0.500000
vt 9.878998 4.668440
vt 3.626328 4.668440
s 0
usemtl Material.002
f 1/1/1 2/2/1 4/3/1 3/4/1
f 3/5/2 4/6/2 8/7/2 7/8/2
f 7/4/3 8/3/3 6/2/3 5/1/3
f 5/8/4 6/7/4 2/6/4 1/5/4
f 3/9/5 7/10/5 5/11/5 1/12/5
f 8/13/6 4/14/6 2/15/6 6/16/6
